<?xml version="1.0" standalone="no"?>
<!DOCTYPE svg PUBLIC "-//W3C//DTD SVG 20010904//EN"
 "http://www.w3.org/TR/2001/REC-SVG-20010904/DTD/svg10.dtd">
<svg version="1.0" xmlns="http://www.w3.org/2000/svg"
 width="512.000000pt" height="512.000000pt" viewBox="0 0 512.000000 512.000000"
 preserveAspectRatio="xMidYMid meet">
<metadata>
Created by potrace 1.11, written by Peter Selinger 2001-2013
</metadata>
<g transform="translate(0.000000,512.000000) scale(0.100000,-0.100000)"
fill="#000000" stroke="none">
<path d="M2 4763 l3 -357 1055 -743 c580 -409 1144 -805 1252 -881 188 -131
229 -164 156 -126 -18 10 -580 277 -1248 595 l-1215 577 -3 -266 c-1 -146 0
-267 2 -270 6 -5 2301 -622 2411 -648 44 -10 71 -19 60 -21 -11 -2 -570 48
-1242 112 -672 63 -1224 115 -1227 115 -3 0 -6 -106 -6 -236 l0 -236 58 6
c158 17 2400 206 2416 204 10 -2 -538 -149 -1218 -328 -681 -179 -1242 -328
-1247 -331 -6 -3 -8 -111 -7 -261 l3 -256 1230 567 c677 312 1241 573 1253
580 13 7 25 11 27 9 4 -4 43 23 -1430 -991 l-1080 -744 -3 -399 -2 -399 1258
1258 c692 691 1262 1257 1266 1257 5 0 0 -12 -10 -28 -21 -32 -1737 -2442
-1772 -2490 l-25 -32 323 2 322 3 422 900 c232 495 498 1063 591 1262 93 200
171 361 173 359 2 -3 -30 -127 -72 -278 -41 -150 -195 -709 -341 -1243 -146
-533 -268 -978 -271 -988 -5 -16 11 -17 239 -17 l245 0 6 58 c19 170 206 2358
206 2405 0 31 4 58 9 61 12 8 11 18 111 -1254 49 -630 92 -1173 95 -1207 l7
-63 244 0 c229 0 245 1 240 18 -3 9 -152 564 -330 1232 -179 668 -330 1231
-336 1250 -16 54 -11 59 12 15 12 -22 277 -596 589 -1275 l567 -1235 312 -3
312 -2 -35 47 c-18 27 -335 480 -702 1008 -368 528 -750 1077 -850 1220 -100
143 -185 267 -190 275 -10 19 -98 108 1296 -1309 l1204 -1225 3 400 c2 383 2
400 -17 415 -10 9 -569 402 -1240 874 -672 472 -1220 859 -1218 861 2 2 478
-223 1058 -500 579 -276 1135 -541 1234 -588 l180 -85 3 260 c1 143 0 262 -2
265 -4 3 -1836 503 -2341 638 -71 19 -115 32 -97 29 31 -4 2412 -225 2432
-225 6 0 10 87 10 230 0 139 -4 230 -10 230 -5 0 -535 -45 -1177 -100 -642
-55 -1197 -102 -1233 -105 l-65 -5 59 21 c32 12 589 158 1238 324 649 167
1181 305 1184 307 2 3 3 122 2 265 l-3 261 -1200 -558 c-660 -306 -1217 -567
-1238 -580 -58 -34 -55 -17 4 26 29 22 588 406 1243 855 l1191 816 3 386 c2
335 0 387 -12 387 -9 0 -573 -557 -1255 -1237 -683 -681 -1233 -1227 -1224
-1213 20 30 1652 2336 1700 2403 l35 47 -307 -2 -307 -3 -549 -1175 c-597
-1278 -603 -1290 -594 -1245 5 25 644 2352 661 2408 5 16 -10 17 -229 17
l-235 0 -6 -52 c-17 -144 -206 -2273 -206 -2319 0 -81 -16 -92 -23 -17 -4 35
-47 560 -97 1168 -49 608 -92 1131 -96 1163 l-6 57 -230 0 c-214 0 -229 -1
-224 -17 3 -10 143 -542 310 -1183 168 -641 312 -1185 321 -1210 9 -25 12 -40
7 -35 -5 6 -188 397 -405 870 -218 473 -470 1020 -560 1215 l-165 355 -301 3
-301 2 57 -83 c32 -45 414 -592 848 -1215 435 -623 797 -1142 805 -1155 14
-20 13 -20 -15 3 -16 14 -569 571 -1228 1238 l-1198 1212 -45 0 -44 0 2 -357z"/>
</g>
</svg>
